<svg id="Group_2443" data-name="Group 2443" xmlns="http://www.w3.org/2000/svg" width="72" height="72" viewBox="0 0 72 72">
  <path id="check" d="M55.557,26.221a2.7,2.7,0,0,0-.779-1.99l-3.937-3.894,5.745,2.777L55.559,34.84c-.75,0-2.794,18.106-3.342,18.654L30.085,55.886,10.4,39.8c-.548-.548,4.115-7.3,3.365-7.3s14.451,2.6,13.9,3.148l-.491,5.615c-.519.519-4.873-1.234-4.873-.426,0,.779-8.8-2.9-8.277-2.386L27.346,51.663a2.661,2.661,0,0,0,1.947.822,2.711,2.711,0,0,0,1.99-.822L54.778,28.168A2.642,2.642,0,0,0,55.557,26.221Zm10.9,7.009A32.506,32.506,0,0,1,62,49.91,33.08,33.08,0,0,1,49.91,62,32.506,32.506,0,0,1,33.23,66.46,32.507,32.507,0,0,1,16.55,62,33.081,33.081,0,0,1,4.457,49.91,32.507,32.507,0,0,1,0,33.23,32.508,32.508,0,0,1,4.457,16.55,33.082,33.082,0,0,1,16.55,4.457,32.508,32.508,0,0,1,33.23,0,32.507,32.507,0,0,1,49.91,4.457,33.081,33.081,0,0,1,62,16.55,32.507,32.507,0,0,1,66.46,33.23Z" transform="matrix(0.996, -0.087, 0.087, 0.996, 0, 5.792)" fill="#fff"/>
  <path id="check-2" data-name="check" d="M55.557,26.221a2.7,2.7,0,0,0-.779-1.99l-3.937-3.894a2.717,2.717,0,0,0-3.894,0L29.293,37.947l-9.779-9.779a2.717,2.717,0,0,0-3.894,0l-3.938,3.894a2.7,2.7,0,0,0-.779,1.99A2.642,2.642,0,0,0,11.682,36L27.346,51.663a2.661,2.661,0,0,0,1.947.822,2.711,2.711,0,0,0,1.99-.822L54.778,28.168A2.642,2.642,0,0,0,55.557,26.221Zm10.9,7.009A32.506,32.506,0,0,1,62,49.91,33.08,33.08,0,0,1,49.91,62,32.506,32.506,0,0,1,33.23,66.46,32.507,32.507,0,0,1,16.55,62,33.081,33.081,0,0,1,4.457,49.91,32.507,32.507,0,0,1,0,33.23,32.508,32.508,0,0,1,4.457,16.55,33.082,33.082,0,0,1,16.55,4.457,32.508,32.508,0,0,1,33.23,0,32.507,32.507,0,0,1,49.91,4.457,33.081,33.081,0,0,1,62,16.55,32.507,32.507,0,0,1,66.46,33.23Z" transform="matrix(0.996, -0.087, 0.087, 0.996, 0, 5.792)" fill="#0a8f00"/>
</svg>
