<svg xmlns="http://www.w3.org/2000/svg" width="30" height="43.632" viewBox="0 0 30 43.632">
  <path id="lightbulb-solid" d="M24.19,38.73a2.731,2.731,0,0,0,.45,1.508L26.1,42.427a3.048,3.048,0,0,0,2.27,1.217h5.256A3.046,3.046,0,0,0,35.9,42.427l1.456-2.189a3.212,3.212,0,0,0,.456-1.509l.011-3.341H24.182ZM30.949.012A14.936,14.936,0,0,0,19.713,24.8,24.516,24.516,0,0,1,24.163,32.6c0,.021.008.044.011.067H37.827c0-.023.008-.044.011-.067A24.508,24.508,0,0,1,42.288,24.8,14.616,14.616,0,0,0,46,14.935,14.984,14.984,0,0,0,30.949.012ZM31,8.194a6.809,6.809,0,0,0-6.818,6.741,1.386,1.386,0,0,1-1.364,1.439,1.368,1.368,0,0,1-1.364-1.364A9.491,9.491,0,0,1,31,5.543a1.363,1.363,0,0,1,1.364,1.364A1.3,1.3,0,0,1,31,8.194Z" transform="translate(-16 -0.012)" fill="#2f4c61"/>
</svg>
